<svg width="316" height="506" viewBox="0 0 316 506" fill="none" xmlns="http://www.w3.org/2000/svg">
<path d="M296.829 144.948C302.521 169.562 305.677 195.2 309.186 220.059C316.502 273.731 320.013 331.987 304.93 383.867C277.119 479.292 173.607 530.207 94.2423 493.631C32.3843 465.154 -29.4862 384.83 16.2586 307.551C29.9833 284.398 57.0214 267.845 60.6399 237.65C64.4318 205.465 37.4179 189.23 22.4458 167.908C0.33567 136.52 13.1544 95.106 31.0252 66.2867C64.3527 12.563 120.093 -8.71817 175.23 4.33756C211.858 12.9961 246.202 37.7638 268.867 73.093C282.693 94.7688 291.091 119.268 296.829 144.948Z" fill="#FF6B35"/>
</svg>
